<mxfile host="app.diagrams.net" agent="Mozilla/5.0 (Macintosh; Intel Mac OS X 10_15_7) AppleWebKit/605.1.15 (KHTML, like Gecko) Version/17.4.1 Safari/605.1.15" version="24.7.5">
  <diagram id="dmieQwYUUAP63awEwlh5" name="Page-1">
    <mxGraphModel dx="836" dy="681" grid="1" gridSize="10" guides="1" tooltips="1" connect="1" arrows="1" fold="1" page="1" pageScale="1" pageWidth="827" pageHeight="1169" math="0" shadow="0">
      <root>
        <mxCell id="0" />
        <mxCell id="1" parent="0" />
        <mxCell id="7N787UUlXTNlcEC6xHam-56" value="Indkørsel station" style="swimlane;" parent="1" vertex="1">
          <mxGeometry x="20" y="592" width="780" height="220" as="geometry" />
        </mxCell>
        <mxCell id="7N787UUlXTNlcEC6xHam-71" value="MD BM" style="rounded=0;whiteSpace=wrap;html=1;" parent="7N787UUlXTNlcEC6xHam-56" vertex="1">
          <mxGeometry x="180" y="128" width="120" height="60" as="geometry" />
        </mxCell>
        <mxCell id="g0L1-y3GfQ9ImoboEQg--7" value="MD BM" style="rounded=0;whiteSpace=wrap;html=1;" parent="7N787UUlXTNlcEC6xHam-56" vertex="1">
          <mxGeometry x="419" y="128" width="120" height="60" as="geometry" />
        </mxCell>
        <mxCell id="04456FXk7IYrC3aViEbB-2" value="Massoth 8170001FM&lt;br&gt;DW2" style="rounded=0;whiteSpace=wrap;html=1;" parent="7N787UUlXTNlcEC6xHam-56" vertex="1">
          <mxGeometry x="419" y="38" width="170" height="60" as="geometry" />
        </mxCell>
        <mxCell id="04456FXk7IYrC3aViEbB-6" value="Massoth 8170001FM&lt;br&gt;DW1" style="rounded=0;whiteSpace=wrap;html=1;" parent="7N787UUlXTNlcEC6xHam-56" vertex="1">
          <mxGeometry x="180" y="38" width="170" height="60" as="geometry" />
        </mxCell>
        <mxCell id="7N787UUlXTNlcEC6xHam-48" value="Slave" style="edgeStyle=orthogonalEdgeStyle;rounded=0;orthogonalLoop=1;jettySize=auto;html=1;exitX=0;exitY=0.5;exitDx=0;exitDy=0;entryX=1;entryY=0.5;entryDx=0;entryDy=0;" parent="7N787UUlXTNlcEC6xHam-56" source="04456FXk7IYrC3aViEbB-2" target="04456FXk7IYrC3aViEbB-6" edge="1">
          <mxGeometry relative="1" as="geometry">
            <mxPoint x="370" y="69" as="sourcePoint" />
            <mxPoint x="310" y="70" as="targetPoint" />
          </mxGeometry>
        </mxCell>
        <mxCell id="g0L1-y3GfQ9ImoboEQg--4" value="Slave" style="endArrow=classic;html=1;rounded=0;" parent="7N787UUlXTNlcEC6xHam-56" edge="1">
          <mxGeometry width="50" height="50" relative="1" as="geometry">
            <mxPoint x="760" y="69" as="sourcePoint" />
            <mxPoint x="589" y="68.5" as="targetPoint" />
          </mxGeometry>
        </mxCell>
        <mxCell id="04456FXk7IYrC3aViEbB-4" value="" style="edgeStyle=orthogonalEdgeStyle;rounded=0;orthogonalLoop=1;jettySize=auto;html=1;" parent="1" source="7N787UUlXTNlcEC6xHam-15" target="04456FXk7IYrC3aViEbB-3" edge="1">
          <mxGeometry relative="1" as="geometry" />
        </mxCell>
        <mxCell id="7N787UUlXTNlcEC6xHam-15" value="Massoth 8138001&lt;br&gt;BUS Adaptor" style="rounded=0;whiteSpace=wrap;html=1;" parent="1" vertex="1">
          <mxGeometry x="46" y="121" width="130" height="60" as="geometry" />
        </mxCell>
        <mxCell id="7N787UUlXTNlcEC6xHam-28" value="" style="endArrow=none;html=1;rounded=0;entryX=1;entryY=0.5;entryDx=0;entryDy=0;exitX=0;exitY=0.5;exitDx=0;exitDy=0;" parent="1" target="7N787UUlXTNlcEC6xHam-15" edge="1">
          <mxGeometry width="50" height="50" relative="1" as="geometry">
            <mxPoint x="200" y="151" as="sourcePoint" />
            <mxPoint x="170" y="141" as="targetPoint" />
          </mxGeometry>
        </mxCell>
        <mxCell id="7N787UUlXTNlcEC6xHam-34" value="Hoved station" style="swimlane;" parent="1" vertex="1">
          <mxGeometry x="20" y="86" width="780" height="220" as="geometry" />
        </mxCell>
        <mxCell id="7N787UUlXTNlcEC6xHam-60" value="15 m RJ11 kabel" style="endArrow=none;html=1;rounded=0;entryX=0.5;entryY=1;entryDx=0;entryDy=0;" parent="7N787UUlXTNlcEC6xHam-34" target="7N787UUlXTNlcEC6xHam-59" edge="1">
          <mxGeometry width="50" height="50" relative="1" as="geometry">
            <mxPoint x="85" y="34" as="sourcePoint" />
            <mxPoint x="130" y="-16" as="targetPoint" />
          </mxGeometry>
        </mxCell>
        <mxCell id="7N787UUlXTNlcEC6xHam-12" value="MD BM" style="rounded=0;whiteSpace=wrap;html=1;" parent="7N787UUlXTNlcEC6xHam-34" vertex="1">
          <mxGeometry x="180" y="125" width="120" height="60" as="geometry" />
        </mxCell>
        <mxCell id="7N787UUlXTNlcEC6xHam-14" value="Massoth 8170001FM&lt;br&gt;HS2" style="rounded=0;whiteSpace=wrap;html=1;" parent="7N787UUlXTNlcEC6xHam-34" vertex="1">
          <mxGeometry x="427" y="35" width="170" height="60" as="geometry" />
        </mxCell>
        <mxCell id="7N787UUlXTNlcEC6xHam-65" value="Massoth 8170501&lt;br&gt;BM" style="rounded=0;whiteSpace=wrap;html=1;" parent="7N787UUlXTNlcEC6xHam-34" vertex="1">
          <mxGeometry x="427" y="125" width="120" height="60" as="geometry" />
        </mxCell>
        <mxCell id="7N787UUlXTNlcEC6xHam-66" value="Massoth 8170501&lt;br&gt;BM" style="rounded=0;whiteSpace=wrap;html=1;" parent="7N787UUlXTNlcEC6xHam-34" vertex="1">
          <mxGeometry x="561" y="125" width="120" height="60" as="geometry" />
        </mxCell>
        <mxCell id="04456FXk7IYrC3aViEbB-3" value="Massoth 8170001FM&lt;br&gt;HS1" style="rounded=0;whiteSpace=wrap;html=1;" parent="7N787UUlXTNlcEC6xHam-34" vertex="1">
          <mxGeometry x="183" y="35" width="170" height="60" as="geometry" />
        </mxCell>
        <mxCell id="7N787UUlXTNlcEC6xHam-23" value="Slave" style="edgeStyle=orthogonalEdgeStyle;rounded=0;orthogonalLoop=1;jettySize=auto;html=1;exitX=1;exitY=0.5;exitDx=0;exitDy=0;" parent="7N787UUlXTNlcEC6xHam-34" source="04456FXk7IYrC3aViEbB-3" target="7N787UUlXTNlcEC6xHam-14" edge="1">
          <mxGeometry relative="1" as="geometry">
            <mxPoint x="310" y="65" as="sourcePoint" />
          </mxGeometry>
        </mxCell>
        <mxCell id="7N787UUlXTNlcEC6xHam-44" value="" style="endArrow=none;html=1;rounded=0;exitX=0;exitY=0.5;exitDx=0;exitDy=0;" parent="1" edge="1">
          <mxGeometry width="50" height="50" relative="1" as="geometry">
            <mxPoint x="196" y="411" as="sourcePoint" />
            <mxPoint x="66" y="411" as="targetPoint" />
          </mxGeometry>
        </mxCell>
        <mxCell id="7N787UUlXTNlcEC6xHam-45" value="Sø station" style="swimlane;" parent="1" vertex="1">
          <mxGeometry x="20" y="342" width="780" height="220" as="geometry" />
        </mxCell>
        <mxCell id="k4cjp3Jf4Ng9a7XbRaLr-1" value="" style="edgeStyle=orthogonalEdgeStyle;rounded=0;orthogonalLoop=1;jettySize=auto;html=1;" edge="1" parent="7N787UUlXTNlcEC6xHam-45" source="7N787UUlXTNlcEC6xHam-62" target="7N787UUlXTNlcEC6xHam-67">
          <mxGeometry relative="1" as="geometry" />
        </mxCell>
        <mxCell id="7N787UUlXTNlcEC6xHam-62" value="MD BM" style="rounded=0;whiteSpace=wrap;html=1;" parent="7N787UUlXTNlcEC6xHam-45" vertex="1">
          <mxGeometry x="74" y="128" width="120" height="60" as="geometry" />
        </mxCell>
        <mxCell id="7N787UUlXTNlcEC6xHam-67" value="Massoth 8170501&lt;br&gt;BM" style="rounded=0;whiteSpace=wrap;html=1;" parent="7N787UUlXTNlcEC6xHam-45" vertex="1">
          <mxGeometry x="302" y="128" width="120" height="60" as="geometry" />
        </mxCell>
        <mxCell id="7N787UUlXTNlcEC6xHam-68" value="Massoth 8170501&lt;br&gt;BM" style="rounded=0;whiteSpace=wrap;html=1;" parent="7N787UUlXTNlcEC6xHam-45" vertex="1">
          <mxGeometry x="432" y="128" width="120" height="60" as="geometry" />
        </mxCell>
        <mxCell id="8QePTbEI3nrJSYXI_bpr-4" value="Slave" style="edgeStyle=none;rounded=0;orthogonalLoop=1;jettySize=auto;html=1;exitX=1;exitY=0.5;exitDx=0;exitDy=0;entryX=0;entryY=0.5;entryDx=0;entryDy=0;" parent="7N787UUlXTNlcEC6xHam-45" source="04456FXk7IYrC3aViEbB-1" target="8QePTbEI3nrJSYXI_bpr-1" edge="1">
          <mxGeometry relative="1" as="geometry" />
        </mxCell>
        <mxCell id="04456FXk7IYrC3aViEbB-1" value="Massoth 8170001FM&lt;br&gt;LS2" style="rounded=0;whiteSpace=wrap;html=1;" parent="7N787UUlXTNlcEC6xHam-45" vertex="1">
          <mxGeometry x="302" y="38" width="170" height="60" as="geometry" />
        </mxCell>
        <mxCell id="04456FXk7IYrC3aViEbB-5" value="Massoth 8170001FM&lt;br&gt;LS1" style="rounded=0;whiteSpace=wrap;html=1;" parent="7N787UUlXTNlcEC6xHam-45" vertex="1">
          <mxGeometry x="74" y="38" width="170" height="60" as="geometry" />
        </mxCell>
        <mxCell id="7N787UUlXTNlcEC6xHam-37" value="Slave" style="edgeStyle=orthogonalEdgeStyle;rounded=0;orthogonalLoop=1;jettySize=auto;html=1;exitX=1;exitY=0.5;exitDx=0;exitDy=0;entryX=0;entryY=0.5;entryDx=0;entryDy=0;" parent="7N787UUlXTNlcEC6xHam-45" source="04456FXk7IYrC3aViEbB-5" target="04456FXk7IYrC3aViEbB-1" edge="1">
          <mxGeometry relative="1" as="geometry">
            <mxPoint x="310" y="68" as="sourcePoint" />
            <mxPoint x="370" y="68" as="targetPoint" />
          </mxGeometry>
        </mxCell>
        <mxCell id="7N787UUlXTNlcEC6xHam-57" value="20 m RJ11 kabel" style="endArrow=none;html=1;rounded=0;" parent="7N787UUlXTNlcEC6xHam-45" edge="1">
          <mxGeometry width="50" height="50" relative="1" as="geometry">
            <mxPoint x="760" y="318" as="sourcePoint" />
            <mxPoint x="760" y="68" as="targetPoint" />
          </mxGeometry>
        </mxCell>
        <mxCell id="8QePTbEI3nrJSYXI_bpr-1" value="Massoth 8170001FM&lt;br&gt;LS3" style="rounded=0;whiteSpace=wrap;html=1;" parent="7N787UUlXTNlcEC6xHam-45" vertex="1">
          <mxGeometry x="570" y="38" width="170" height="60" as="geometry" />
        </mxCell>
        <mxCell id="8QePTbEI3nrJSYXI_bpr-5" value="Massoth 8170501&lt;br&gt;BM" style="rounded=0;whiteSpace=wrap;html=1;" parent="7N787UUlXTNlcEC6xHam-45" vertex="1">
          <mxGeometry x="570" y="128" width="120" height="60" as="geometry" />
        </mxCell>
        <mxCell id="7N787UUlXTNlcEC6xHam-58" value="20m RJ11 kabel" style="endArrow=none;html=1;rounded=0;entryX=0.5;entryY=1;entryDx=0;entryDy=0;" parent="1" edge="1">
          <mxGeometry width="50" height="50" relative="1" as="geometry">
            <mxPoint x="66" y="412" as="sourcePoint" />
            <mxPoint x="67" y="183" as="targetPoint" />
          </mxGeometry>
        </mxCell>
        <mxCell id="7N787UUlXTNlcEC6xHam-59" value="Massoth CS" style="rounded=0;whiteSpace=wrap;html=1;" parent="1" vertex="1">
          <mxGeometry x="40" y="10" width="130" height="60" as="geometry" />
        </mxCell>
        <mxCell id="7N787UUlXTNlcEC6xHam-70" value="" style="edgeStyle=orthogonalEdgeStyle;rounded=0;orthogonalLoop=1;jettySize=auto;html=1;" parent="1" edge="1">
          <mxGeometry relative="1" as="geometry">
            <mxPoint x="386" y="748" as="targetPoint" />
          </mxGeometry>
        </mxCell>
        <mxCell id="8QePTbEI3nrJSYXI_bpr-8" value="" style="endArrow=none;html=1;rounded=0;" parent="1" edge="1">
          <mxGeometry width="50" height="50" relative="1" as="geometry">
            <mxPoint x="780" y="410" as="sourcePoint" />
            <mxPoint x="760" y="409.75" as="targetPoint" />
          </mxGeometry>
        </mxCell>
      </root>
    </mxGraphModel>
  </diagram>
</mxfile>
